# xmcd CD database file
#
# Track frame offsets:
#       150
#       19768
#       35966
#       52581
#       69164
#       87134
#       104769
#       122824
#       140595
#       157961
#
# Disc length: 2327 seconds
#
# Revision: 
# Submitted via: crip v3.9 (http://bach.dynet.com/crip)
#
# Revision: 0
# Processed by: cddbd v1.5.2PL0 Copyright (c) Steve Scherf et al.
#
DISCID=8009150a
DTITLE=Richie McDonald - I Turn To You
DYEAR=2008
DGENRE=country
TTITLE0=Carry The Cross
TTITLE1=I Turn To You
TTITLE2=Stay With Me Lord
TTITLE3=He's Alive
TTITLE4=Faith
TTITLE5=Handle With Prayer
TTITLE6=What Would He Do
TTITLE7=Walls
TTITLE8=Blessed Are The Hands That Give
TTITLE9=Hey God(Acoustic)
EXTD=
EXTT0=
EXTT1=
EXTT2=
EXTT3=
EXTT4=
EXTT5=
EXTT6=
EXTT7=
EXTT8=
EXTT9=
PLAYORDER=
